<svg width="23" height="22" viewBox="0 0 23 22" fill="none" xmlns="http://www.w3.org/2000/svg">
<g id="Group 33659">
<path id="Vector 15 (Stroke)" fill-rule="evenodd" clip-rule="evenodd" d="M0.151489 1.18579H13.493V2.3717H1.3374V20.4568H19.719V8.00476H20.9049V21.6427H0.151489V1.18579Z" fill="#666766"/>
<path id="Ellipse 2 (Stroke)" fill-rule="evenodd" clip-rule="evenodd" d="M18.533 5.92954C19.8429 5.92954 20.9048 4.86764 20.9048 3.55772C20.9048 2.24781 19.8429 1.18591 18.533 1.18591C17.2231 1.18591 16.1612 2.24781 16.1612 3.55772C16.1612 4.86764 17.2231 5.92954 18.533 5.92954ZM18.533 7.11545C20.4979 7.11545 22.0907 5.5226 22.0907 3.55772C22.0907 1.59285 20.4979 0 18.533 0C16.5681 0 14.9753 1.59285 14.9753 3.55772C14.9753 5.5226 16.5681 7.11545 18.533 7.11545Z" fill="#666766"/>
<path id="Vector 16 (Stroke)" fill-rule="evenodd" clip-rule="evenodd" d="M15.6913 12.2785L11.1213 16.8485L7.86009 13.5872L4.42517 17.0221L3.58661 16.1836L7.86009 11.9101L11.1213 15.1713L14.8527 11.4399L15.6913 12.2785Z" fill="#666766"/>
</g>
</svg>
