<svg width="39" height="39" viewBox="0 0 39 39" fill="none" xmlns="http://www.w3.org/2000/svg">
<circle cx="19.4476" cy="19.4476" r="19.4476" fill="#EBEBEB"/>
<path fill-rule="evenodd" clip-rule="evenodd" d="M14.9244 13.036C16.5491 12.0061 18.4775 11.8827 19.7593 12.0769L19.6276 12.9462C18.4915 12.7741 16.793 12.8925 15.3952 13.7786C14.0286 14.645 12.8793 16.2892 12.8793 19.3258C12.8793 23.1705 14.2028 24.7476 15.4996 25.42C16.6555 26.0194 17.869 25.9616 18.5223 25.9305C18.5886 25.9273 18.6492 25.9244 18.7034 25.9225C18.7477 25.8789 18.81 25.8072 18.8908 25.7009C19.0688 25.4668 19.298 25.1161 19.569 24.6664C20.109 23.7701 20.7897 22.5225 21.5185 21.128C22.9749 18.3412 24.61 14.9944 25.671 12.7624L26.4651 13.14C25.4014 15.3776 23.7611 18.7351 22.2977 21.5352C21.5666 22.9342 20.8762 24.2007 20.3221 25.1202C20.0461 25.5783 19.7976 25.9609 19.5907 26.2331C19.4883 26.3678 19.3861 26.4888 19.2877 26.5803C19.2386 26.626 19.1799 26.6742 19.1133 26.7133C19.0518 26.7494 18.9469 26.7995 18.8142 26.7995C18.7667 26.7995 18.696 26.8034 18.6056 26.8084C17.9971 26.8421 16.4929 26.9255 15.0948 26.2006C13.4241 25.3343 12 23.3944 12 19.3258C12 16.0318 13.2686 14.0857 14.9244 13.036Z" fill="black"/>
<path fill-rule="evenodd" clip-rule="evenodd" d="M20.6815 12.5765C20.9497 12.8783 21.1923 13.3161 21.4206 13.8868C21.6061 14.3506 22.1632 16.0056 22.7802 17.8389C22.9142 18.2369 23.051 18.6433 23.1874 19.0477C23.5721 20.188 23.9561 21.3193 24.2712 22.2201C24.5923 23.1379 24.8285 23.7768 24.9226 23.9649C25.3361 24.7919 25.8808 25.2606 26.5077 25.2606C26.9965 25.2606 27.1749 25.0954 27.2095 25.0633C27.2169 25.0564 27.2177 25.0557 27.2136 25.064L28 25.4572C27.8299 25.7975 27.3208 26.1399 26.5077 26.1399C25.3761 26.1399 24.602 25.2897 24.1362 24.3581C24.0104 24.1067 23.7521 23.3991 23.4412 22.5104C23.1244 21.6046 22.739 20.4691 22.3543 19.3288C22.2153 18.9167 22.0767 18.5048 21.9415 18.1033C21.3242 16.2698 20.7796 14.6519 20.6042 14.2134C20.3929 13.6851 20.1958 13.3535 20.0243 13.1607C19.8576 12.9731 19.0889 12.879 19.034 12.879L19.6935 12.0718C20.0783 12.0718 20.4086 12.2695 20.6815 12.5765Z" fill="black"/>
</svg>
