<svg width="39" height="39" viewBox="0 0 39 39" fill="none" xmlns="http://www.w3.org/2000/svg">
<circle cx="19.4476" cy="19.4476" r="19.4476" fill="#EBEBEB"/>
<path d="M13.3748 25.8265C15.2386 25.8265 16.7496 24.3156 16.7496 22.4517C16.7496 20.5879 15.2386 19.0769 13.3748 19.0769C11.5109 19.0769 10 20.5879 10 22.4517C10 24.3156 11.5109 25.8265 13.3748 25.8265Z" fill="white"/>
<path fill-rule="evenodd" clip-rule="evenodd" d="M13.3748 20.0748C12.0621 20.0748 10.9979 21.139 10.9979 22.4517C10.9979 23.7644 12.0621 24.8286 13.3748 24.8286C14.6875 24.8286 15.7517 23.7644 15.7517 22.4517C15.7517 21.139 14.6875 20.0748 13.3748 20.0748ZM10 22.4517C10 20.5879 11.5109 19.0769 13.3748 19.0769C15.2386 19.0769 16.7496 20.5879 16.7496 22.4517C16.7496 24.3156 15.2386 25.8265 13.3748 25.8265C11.5109 25.8265 10 24.3156 10 22.4517Z" fill="#2E2E2D"/>
<path d="M24.6254 25.8265C26.4892 25.8265 28.0002 24.3156 28.0002 22.4517C28.0002 20.5879 26.4892 19.0769 24.6254 19.0769C22.7615 19.0769 21.2506 20.5879 21.2506 22.4517C21.2506 24.3156 22.7615 25.8265 24.6254 25.8265Z" fill="white"/>
<path fill-rule="evenodd" clip-rule="evenodd" d="M24.6254 20.0748C23.3126 20.0748 22.2485 21.139 22.2485 22.4517C22.2485 23.7644 23.3126 24.8286 24.6254 24.8286C25.9381 24.8286 27.0023 23.7644 27.0023 22.4517C27.0023 21.139 25.9381 20.0748 24.6254 20.0748ZM21.2506 22.4517C21.2506 20.5879 22.7615 19.0769 24.6254 19.0769C26.4892 19.0769 28.0002 20.5879 28.0002 22.4517C28.0002 24.3156 26.4892 25.8265 24.6254 25.8265C22.7615 25.8265 21.2506 24.3156 21.2506 22.4517Z" fill="#2E2E2D"/>
<path d="M20.1886 21.2642H17.8436C17.7108 20.2023 17.2577 19.2062 16.5446 18.4083C15.8316 17.6104 14.8924 17.0486 13.8521 16.7977C13.8521 16.7977 10.3716 15.3588 12.5789 15.3707C14.7861 15.3827 18.3146 16.1352 18.7377 17.3985C19.1608 18.6618 20.5159 16.6122 21.402 16.2969C22.2881 15.9815 18.7377 12.4011 18.7377 12.4011C18.7377 12.4011 23.9725 16.2729 23.2899 17.0732C20.6995 18.4023 20.3043 19.5818 20.1886 21.2642Z" fill="white"/>
<path fill-rule="evenodd" clip-rule="evenodd" d="M19.0345 12L18.7378 12.4011C19.0345 12 19.0344 11.9999 19.0345 12L19.0388 12.0032L19.0505 12.0119L19.0953 12.0453C19.1342 12.0744 19.1909 12.117 19.2627 12.1714C19.4062 12.2801 19.6101 12.436 19.8524 12.6256C20.3365 13.0042 20.9771 13.5192 21.598 14.0612C22.2144 14.5993 22.8294 15.1795 23.2506 15.6868C23.458 15.9367 23.643 16.1977 23.7493 16.4469C23.845 16.6711 23.9495 17.0688 23.6697 17.3969L23.6056 17.472L23.5178 17.5171C22.2611 18.1619 21.5999 18.7394 21.2295 19.3084C20.8624 19.8723 20.7424 20.4847 20.6864 21.2984L20.6545 21.7631H17.4033L17.3486 21.3261C17.2284 20.3649 16.8182 19.4631 16.1727 18.7408C15.5272 18.0185 14.677 17.5099 13.7353 17.2828L13.5097 17.2284L13.4879 17.1848C13.396 17.1449 13.2732 17.0905 13.1338 17.0261C12.8368 16.889 12.451 16.7004 12.1303 16.5071C11.9715 16.4114 11.8121 16.3046 11.6842 16.1933C11.6203 16.1376 11.5522 16.0705 11.4948 15.9927C11.4408 15.9197 11.3696 15.8016 11.3513 15.6478C11.3299 15.4685 11.387 15.2932 11.5099 15.1599C11.6155 15.0452 11.7457 14.987 11.844 14.9547C12.0398 14.8902 12.2937 14.8703 12.5817 14.8718C13.73 14.8781 15.2094 15.0754 16.4651 15.4358C17.0925 15.6159 17.6854 15.8426 18.1592 16.1197C18.6172 16.3875 19.0469 16.7503 19.2109 17.2401C19.2166 17.2571 19.2221 17.2717 19.2271 17.2841C19.2456 17.2759 19.267 17.2653 19.2916 17.2517C19.3743 17.2059 19.4728 17.1378 19.5885 17.047C19.7359 16.9315 19.875 16.8097 20.0247 16.6787C20.1265 16.5896 20.2332 16.4962 20.3507 16.3975C20.5397 16.2389 20.7616 16.0627 20.9933 15.9365C20.9747 15.8951 20.9511 15.8479 20.9221 15.7949C20.7383 15.4595 20.4038 15.0131 20.0186 14.5497C19.6388 14.0929 19.23 13.6433 18.9146 13.3066C18.7572 13.1386 18.6239 12.9995 18.5301 12.9026C18.4832 12.8542 18.4463 12.8163 18.4212 12.7907L18.3927 12.7618L18.3856 12.7546L18.3839 12.7529C18.3837 12.7531 18.3839 12.7529 18.3839 12.7529L19.0345 12ZM14.009 16.3225C15.132 16.6017 16.1453 17.2126 16.9168 18.0759C17.5987 18.839 18.0635 19.7676 18.267 20.7652H19.7323C19.8116 20.0676 19.9775 19.4025 20.3932 18.764C20.8627 18.0429 21.6172 17.4059 22.7977 16.7685C22.7382 16.6571 22.6356 16.5083 22.4828 16.3242C22.3471 16.1608 22.1846 15.9846 22.0032 15.8007C22.0202 15.8641 22.0326 15.928 22.0387 15.9913C22.0505 16.1141 22.0425 16.2745 21.9608 16.4316C21.8726 16.6009 21.7278 16.7106 21.5694 16.7669C21.443 16.8119 21.2548 16.9415 20.9922 17.1619C20.9095 17.2313 20.816 17.3129 20.7181 17.3983C20.5484 17.5463 20.3658 17.7056 20.2042 17.8323C20.0687 17.9386 19.9232 18.0427 19.7746 18.1249C19.6298 18.2049 19.452 18.2813 19.2561 18.3003C19.0436 18.3209 18.8176 18.2719 18.6233 18.1145C18.4434 17.9687 18.3344 17.7651 18.2647 17.557C18.2172 17.4151 18.0472 17.2101 17.6555 16.9811C17.2799 16.7614 16.7733 16.5624 16.1898 16.395C15.1959 16.1097 14.0404 15.9333 13.0651 15.8838C13.231 15.969 13.3999 16.0499 13.552 16.1201C13.6936 16.1855 13.8172 16.24 13.9052 16.2781L14.009 16.3225ZM12.1522 15.9039C12.1522 15.9039 12.1532 15.9035 12.1554 15.9027L12.1522 15.9039Z" fill="#2E2E2D"/>
</svg>
