<svg width="22" height="21" viewBox="0 0 22 21" fill="none" xmlns="http://www.w3.org/2000/svg">
<g id="Group 33802">
<path id="Vector (Stroke)" fill-rule="evenodd" clip-rule="evenodd" d="M19.7002 12.786C20.176 10.9026 20.0531 8.91772 19.3487 7.10738L20.4359 6.68433C21.2283 8.72062 21.3665 10.9532 20.8313 13.0717C20.2962 15.1902 19.1143 17.0893 17.45 18.505L16.6941 17.6164C18.1737 16.3577 19.2245 14.6694 19.7002 12.786Z" fill="#666766"/>
<path id="Vector (Stroke)_2" fill-rule="evenodd" clip-rule="evenodd" d="M11.0685 1.17589C9.64756 1.11263 8.231 1.37488 6.92693 1.94262C5.62285 2.51036 4.46574 3.36857 3.54395 4.45173C2.62216 5.53489 1.96006 6.81436 1.60819 8.19245C1.25633 9.57054 1.22401 11.0108 1.5137 12.4033C1.8034 13.7958 2.40744 15.1037 3.27972 16.2271C4.15199 17.3505 5.26944 18.2597 6.54673 18.8854C7.82403 19.5111 9.2274 19.8366 10.6497 19.8371L10.6493 21.0038C9.0492 21.0032 7.47045 20.637 6.03353 19.9331C4.59661 19.2293 3.33951 18.2064 2.35823 16.9426C1.37694 15.6788 0.697406 14.2074 0.371511 12.6409C0.0456147 11.0744 0.0819728 9.45414 0.47781 7.90383C0.873646 6.35352 1.61849 4.91415 2.65548 3.69563C3.69248 2.4771 4.99419 1.51163 6.46124 0.872945C7.92828 0.234256 9.52188 -0.0607699 11.1203 0.0103927C12.7188 0.0815553 14.2799 0.517025 15.6844 1.28355L15.1255 2.30761C13.877 1.62624 12.4893 1.23914 11.0685 1.17589Z" fill="#666766"/>
<path id="Vector (Stroke)_3" fill-rule="evenodd" clip-rule="evenodd" d="M12.3459 4.91472C11.1781 4.56005 9.92855 4.58024 8.7728 4.97244C7.61706 5.36464 6.61326 6.10915 5.90251 7.10131L4.9541 6.4219C5.80687 5.2315 7.01123 4.33824 8.3979 3.86767C9.78456 3.3971 11.2838 3.37289 12.685 3.79842C14.0861 4.22395 15.3187 5.07785 16.2095 6.24009C17.1002 7.40232 17.6044 8.81448 17.6512 10.2781C17.6979 11.7417 17.2849 13.1831 16.4701 14.3998C15.6553 15.6165 14.4797 16.5473 13.1085 17.0614C11.7374 17.5755 10.2396 17.647 8.82578 17.2658C7.41191 16.8847 6.15302 16.0701 5.22602 14.9365L6.12914 14.198C6.90176 15.1428 7.95101 15.8217 9.12943 16.1394C10.3078 16.457 11.5562 16.3975 12.699 15.969C13.8418 15.5405 14.8216 14.7647 15.5007 13.7507C16.1798 12.7366 16.5241 11.5352 16.4851 10.3153C16.4462 9.09545 16.0259 7.91846 15.2835 6.94977C14.5411 5.98108 13.5138 5.26939 12.3459 4.91472Z" fill="#666766"/>
</g>
</svg>
