<svg width="363" height="262" viewBox="0 0 363 262" fill="none" xmlns="http://www.w3.org/2000/svg">
<g clip-path="url(#clip0_2001_50)">
<path d="M179.784 248.641C185.594 248.641 191.23 247.522 196.536 245.316C199.086 244.255 201.545 242.943 203.846 241.414C206.124 239.9 208.267 238.162 210.215 236.247C212.162 234.332 213.93 232.225 215.469 229.985C217.023 227.723 218.357 225.305 219.436 222.798C221.679 217.582 222.816 212.042 222.816 206.331C222.816 200.62 221.679 195.079 219.436 189.864C218.357 187.357 217.023 184.939 215.469 182.677C213.93 180.437 212.162 178.33 210.215 176.415C208.267 174.5 206.124 172.761 203.846 171.248C201.545 169.719 199.086 168.407 196.536 167.346C191.23 165.139 185.594 164.02 179.784 164.02C173.973 164.02 168.337 165.139 163.031 167.346C160.481 168.407 158.022 169.719 155.721 171.248C153.443 172.761 151.3 174.5 149.353 176.415C147.405 178.33 145.638 180.437 144.098 182.677C142.544 184.939 141.21 187.357 140.131 189.864C137.888 195.079 136.751 200.62 136.751 206.331C136.751 212.042 137.888 217.582 140.131 222.798C141.21 225.305 142.544 227.723 144.098 229.985C145.638 232.225 147.405 234.332 149.353 236.247C151.3 238.162 153.443 239.9 155.721 241.414C158.022 242.943 160.481 244.255 163.031 245.316C168.337 247.522 173.973 248.641 179.784 248.641ZM179.784 177.646C183.656 177.646 187.413 178.404 190.951 179.9C194.367 181.345 197.435 183.413 200.07 186.047C202.704 188.682 204.773 191.749 206.218 195.165C207.714 198.702 208.472 202.459 208.472 206.331C208.472 210.203 207.714 213.96 206.218 217.496C204.773 220.912 202.704 223.98 200.07 226.614C197.435 229.249 194.367 231.317 190.951 232.762C187.413 234.258 183.656 235.016 179.784 235.016C175.911 235.016 172.154 234.258 168.617 232.762C165.2 231.317 162.132 229.249 159.498 226.614C156.863 223.98 154.794 220.912 153.349 217.496C151.853 213.96 151.095 210.203 151.095 206.331C151.095 202.459 151.853 198.702 153.349 195.165C154.794 191.749 156.863 188.682 159.498 186.047C162.132 183.413 165.2 181.345 168.617 179.9C172.154 178.404 175.911 177.646 179.784 177.646Z" fill="white"/>
<path d="M156.68 159.445C156.68 159.445 165.223 155.081 172.842 154.804C180.461 154.526 189.384 154.069 193.632 156.565C197.881 159.061 199.623 158.453 198.588 161.115C197.554 163.777 197.424 166.464 193.632 166.096C189.841 165.728 178.418 164.341 175.697 164.573C172.976 164.806 155.447 170.368 149.459 177.737C143.471 185.106 141.613 189.987 139.643 195.42C137.672 200.853 136.516 195.42 136.516 195.42L156.68 159.445Z" fill="white"/>
<path d="M86.7248 39.3639L101.991 35.8565L112.887 29C112.887 29 133.813 32.0313 134.26 35.8565C134.708 39.6816 135.676 40.7516 134.26 47.8827C132.845 55.0139 131.615 57.6565 129.18 58.6102C126.745 59.564 114.468 55.1523 112.884 56.2437C111.3 57.3352 111.623 56.8597 112.221 58.6102C112.819 60.3608 127.713 74.215 145.07 97.716C162.426 121.217 167.922 127.167 168.896 132.118C169.87 137.069 145.775 181.272 141.986 185.964C138.197 190.657 131.859 209.491 119.562 214.431C107.264 219.371 96.0192 223.252 67.8592 220.362C39.6991 217.472 -35.0614 193.684 -52.6475 187.035C-70.2337 180.386 -96.2242 168.935 -106.067 161.17C-115.909 153.405 -112.1 137.986 -111.75 128.182C-111.4 118.377 -100.279 113.644 -93.4607 111.377C-86.6429 109.109 -62.6591 111.807 -52.6511 116.36C-42.6431 120.913 40.293 132.121 40.293 132.121C40.293 132.121 34.5108 150.645 36.2199 157.651C37.929 164.656 43.6474 170.827 55.9434 173.492C68.2393 176.157 94.427 180.256 101.989 177.304C109.55 174.351 118.386 153.703 119.56 141.598C120.735 129.493 106.307 89.3686 101.989 80.2468C97.6703 71.1249 88.3823 57.8429 86.722 49.9409C85.0616 42.0388 86.7248 39.3639 86.7248 39.3639Z" fill="white"/>
<path d="M40.9389 131.965C40.9389 131.965 48.7185 136.28 50.6486 123.8C52.5786 111.319 52.9207 97.4142 37.3134 95.8028C21.706 94.1914 0.253342 99.017 -7.40007 95.8028C-15.0535 92.5886 -35.7351 85.289 -47.8855 85.583C-60.0359 85.877 -75.1698 84.0462 -80.932 88.8251C-86.6941 93.6041 -87.5181 102.282 -85.7811 105.073C-84.0439 107.864 -46.4446 118.125 -46.4446 118.125L-7.40007 125.277L40.9389 131.965Z" fill="white"/>
<path d="M295.296 19.6155C295.296 19.6155 287.654 13.7377 282.437 15.2482C277.22 16.7587 268.122 19.9962 266.501 24.3821C264.88 28.7679 260.07 64.5199 262.196 82.1899C264.322 99.8598 268.338 124.947 276.535 129.245C284.732 133.542 297.168 128.081 298.583 123.134C299.999 118.187 297.159 79.9802 297.047 71.4262C296.935 62.8723 298.261 33.6452 297.047 29.1758C296.247 26.0326 295.661 22.8384 295.296 19.6155Z" fill="white" stroke="#EBEBEB"/>
<path d="M298.978 27.9816L314.067 30.332V108.637H298.978V27.9816Z" fill="white" stroke="#EBEBEB"/>
<path d="M306.522 86.9214L304.439 90.106L304.766 93.3063C304.766 93.3063 302.885 93.362 302.916 96.131C302.947 98.8999 302.78 102.192 304.439 103.436C306.098 104.681 308.556 105.508 310.724 106.326C312.891 107.145 315.295 105.623 317.784 106.785C320.274 107.946 325.046 112.325 326.11 114.554C327.174 116.782 326.078 117.033 328.226 118.782C330.374 120.532 331.787 121.828 332.882 120.404C333.977 118.98 335.56 116.208 334.801 113.968C334.042 111.728 330.961 106.024 328.226 103.434C325.491 100.845 322.892 98.5714 322.861 98.4071C322.829 98.2428 325.633 97.3451 324.09 96.1288C322.547 94.9125 319.506 94.1448 319.688 93.652C319.87 93.1592 322.464 93.3127 322.084 91.2152C321.704 89.1176 322.485 88.0491 319.688 87.5777C316.89 87.1064 313.703 85.9815 312.204 86.4443C310.706 86.9071 306.522 86.9214 306.522 86.9214Z" fill="white" stroke="#EBEBEB"/>
<path d="M304.747 92.9636C306.606 93.4816 308.507 93.8379 310.427 94.0284C313.679 94.1808 316.937 94.0088 320.155 93.5149" fill="white"/>
<path d="M304.747 92.9636C306.606 93.4816 308.507 93.8379 310.427 94.0284C313.679 94.1808 316.937 94.0088 320.155 93.5149" stroke="#EBEBEB"/>
<path d="M331.885 119.709C331.885 124.639 332.144 129.361 331.885 134.203C331.717 137.346 330.106 140.525 328.961 143.426C327.764 146.454 325.763 149.593 323.83 152.209C320.145 157.198 314.9 160.607 311.018 165.385C309.52 167.228 307.457 167.917 305.565 169.24C302.895 171.108 299.756 172.819 296.742 174.071C289.914 176.907 283.329 179 275.925 179C268.379 179 261.11 178.341 253.818 176.267C250.328 175.275 246.595 174.322 243.459 172.51C241.069 171.129 239.106 169.358 236.841 167.825C228.998 162.516 221.619 155.981 215.454 148.794C210.697 143.248 205.454 138.072 200.732 132.544C196.996 128.17 191.119 125.272 186.234 122.345C179.893 118.544 173.942 114.831 166.383 114.439C161.902 114.207 157.472 114 153 114" stroke="white" stroke-width="3" stroke-linecap="round"/>
</g>
<defs>
<clipPath id="clip0_2001_50">
<rect width="363" height="262" fill="white"/>
</clipPath>
</defs>
</svg>
