<svg width="363" height="262" viewBox="0 0 363 262" fill="none" xmlns="http://www.w3.org/2000/svg">
<g clip-path="url(#clip0_2001_54)">
<rect width="363" height="262" fill="white" fill-opacity="0.5"/>
<path d="M185.784 249.641C191.594 249.641 197.23 248.522 202.536 246.316C205.086 245.255 207.545 243.943 209.846 242.414C212.124 240.9 214.267 239.162 216.215 237.247C218.162 235.332 219.93 233.225 221.469 230.985C223.023 228.723 224.357 226.305 225.436 223.798C227.679 218.582 228.816 213.042 228.816 207.331C228.816 201.62 227.679 196.079 225.436 190.864C224.357 188.357 223.023 185.939 221.469 183.677C219.93 181.437 218.162 179.33 216.215 177.415C214.267 175.5 212.124 173.761 209.846 172.248C207.545 170.719 205.086 169.407 202.536 168.346C197.23 166.139 191.594 165.02 185.784 165.02C179.973 165.02 174.337 166.139 169.031 168.346C166.481 169.407 164.022 170.719 161.721 172.248C159.443 173.761 157.3 175.5 155.353 177.415C153.405 179.33 151.638 181.437 150.098 183.677C148.544 185.939 147.21 188.357 146.131 190.864C143.888 196.079 142.751 201.62 142.751 207.331C142.751 213.042 143.888 218.582 146.131 223.798C147.21 226.305 148.544 228.723 150.098 230.985C151.638 233.225 153.405 235.332 155.353 237.247C157.3 239.162 159.443 240.9 161.721 242.414C164.022 243.943 166.481 245.255 169.031 246.316C174.337 248.522 179.973 249.641 185.784 249.641ZM185.784 178.646C189.656 178.646 193.413 179.404 196.951 180.9C200.367 182.345 203.435 184.413 206.07 187.047C208.704 189.682 210.773 192.749 212.218 196.165C213.714 199.702 214.472 203.459 214.472 207.331C214.472 211.203 213.714 214.96 212.218 218.496C210.773 221.912 208.704 224.98 206.07 227.614C203.435 230.249 200.367 232.317 196.951 233.762C193.413 235.258 189.656 236.016 185.784 236.016C181.911 236.016 178.154 235.258 174.617 233.762C171.2 232.317 168.132 230.249 165.498 227.614C162.863 224.98 160.794 221.912 159.349 218.496C157.853 214.96 157.095 211.203 157.095 207.331C157.095 203.459 157.853 199.702 159.349 196.165C160.794 192.749 162.863 189.682 165.498 187.047C168.132 184.413 171.2 182.345 174.617 180.9C178.154 179.404 181.911 178.646 185.784 178.646Z" fill="#2E2E2D"/>
<path d="M162.68 160.445C162.68 160.445 171.223 156.081 178.842 155.804C186.461 155.526 195.384 155.069 199.632 157.565C203.881 160.061 205.623 159.453 204.588 162.115C203.554 164.777 203.424 167.464 199.632 167.096C195.841 166.728 184.418 165.341 181.697 165.573C178.976 165.806 161.447 171.368 155.459 178.737C149.471 186.106 147.613 190.987 145.643 196.42C143.672 201.853 142.516 196.42 142.516 196.42L162.68 160.445Z" fill="#2E2E2D"/>
<path d="M92.725 40.3639L107.992 36.8565L118.888 30C118.888 30 139.813 33.0313 140.261 36.8565C140.708 40.6816 141.676 41.7516 140.261 48.8827C138.846 56.0139 137.615 58.6565 135.18 59.6102C132.745 60.564 120.468 56.1523 118.884 57.2437C117.3 58.3352 117.623 57.8597 118.221 59.6102C118.819 61.3608 133.713 75.215 151.07 98.716C168.426 122.217 173.922 128.167 174.896 133.118C175.87 138.069 151.775 182.272 147.986 186.964C144.197 191.657 137.859 210.491 125.562 215.431C113.265 220.371 102.019 224.252 73.8593 221.362C45.6992 218.472 -29.0612 194.684 -46.6474 188.035C-64.2335 181.386 -90.224 169.935 -100.066 162.17C-109.909 154.405 -106.1 138.986 -105.75 129.182C-105.4 119.377 -94.2785 114.644 -87.4606 112.377C-80.6427 110.109 -56.659 112.807 -46.651 117.36C-36.6429 121.913 46.2931 133.121 46.2931 133.121C46.2931 133.121 40.5109 151.645 42.22 158.651C43.9292 165.656 49.6475 171.827 61.9435 174.492C74.2394 177.157 100.427 181.256 107.989 178.304C115.55 175.351 124.386 154.703 125.561 142.598C126.735 130.493 112.307 90.3686 107.989 81.2468C103.67 72.1249 94.3825 58.8429 92.7221 50.9409C91.0617 43.0388 92.725 40.3639 92.725 40.3639Z" fill="#2E2E2D"/>
<path d="M46.9389 132.965C46.9389 132.965 54.7185 137.28 56.6486 124.8C58.5786 112.319 58.9207 98.4142 43.3134 96.8028C27.706 95.1914 6.25334 100.017 -1.40007 96.8028C-9.05349 93.5886 -29.7351 86.289 -41.8855 86.583C-54.0359 86.877 -69.1698 85.0462 -74.932 89.8251C-80.6941 94.6041 -81.5181 103.282 -79.7811 106.073C-78.0439 108.864 -40.4446 119.125 -40.4446 119.125L-1.40007 126.277L46.9389 132.965Z" fill="#2E2E2D"/>
<path d="M303.296 20.6155C303.296 20.6155 295.654 14.7377 290.437 16.2482C285.22 17.7587 276.122 20.9962 274.501 25.3821C272.88 29.7679 268.07 65.5199 270.196 83.1899C272.322 100.86 276.338 125.947 284.535 130.245C292.732 134.542 305.168 129.081 306.583 124.134C307.999 119.187 305.159 80.9802 305.047 72.4262C304.935 63.8723 306.261 34.6452 305.047 30.1758C304.247 27.0326 303.661 23.8384 303.296 20.6155Z" fill="#2E2E2D" stroke="#2E2E2D"/>
<path d="M306.978 28.9816L322.067 31.332V109.637H306.978V28.9816Z" fill="#2E2E2D" stroke="#2E2E2D"/>
<path d="M314.522 87.9214L312.439 91.106L312.766 94.3063C312.766 94.3063 310.885 94.362 310.916 97.131C310.947 99.8999 310.78 103.192 312.439 104.436C314.098 105.681 316.556 106.508 318.724 107.326C320.891 108.145 323.295 106.623 325.784 107.785C328.274 108.946 333.046 113.325 334.11 115.554C335.174 117.782 334.078 118.033 336.226 119.782C338.374 121.532 339.787 122.828 340.882 121.404C341.977 119.98 343.56 117.208 342.801 114.968C342.042 112.728 338.961 107.024 336.226 104.434C333.491 101.845 330.892 99.5714 330.861 99.4071C330.829 99.2428 333.633 98.3451 332.09 97.1288C330.547 95.9125 327.506 95.1448 327.688 94.652C327.87 94.1592 330.464 94.3127 330.084 92.2152C329.704 90.1176 330.485 89.0491 327.688 88.5777C324.89 88.1064 321.703 86.9815 320.204 87.4443C318.706 87.9071 314.522 87.9214 314.522 87.9214Z" fill="#2E2E2D" stroke="#2E2E2D"/>
<path d="M312.747 93.9636C314.606 94.4816 316.507 94.8379 318.427 95.0284C321.679 95.1808 324.937 95.0088 328.155 94.5149" fill="#2E2E2D"/>
<path d="M312.747 93.9636C314.606 94.4816 316.507 94.8379 318.427 95.0284C321.679 95.1808 324.937 95.0088 328.155 94.5149" stroke="#2E2E2D"/>
<path d="M339.885 120.709C339.885 125.639 340.144 130.361 339.885 135.203C339.717 138.346 338.106 141.525 336.961 144.426C335.764 147.454 333.763 150.593 331.83 153.209C328.145 158.198 322.9 161.607 319.018 166.385C317.52 168.228 315.457 168.917 313.565 170.24C310.895 172.108 307.756 173.819 304.742 175.071C297.914 177.907 291.329 180 283.925 180C276.379 180 269.11 179.341 261.818 177.267C258.328 176.275 254.595 175.322 251.459 173.51C249.069 172.129 247.106 170.358 244.841 168.825C236.998 163.516 229.619 156.981 223.454 149.794C218.697 144.248 213.454 139.072 208.732 133.544C204.996 129.17 199.119 126.272 194.234 123.345C187.893 119.544 181.942 115.831 174.383 115.439C169.902 115.207 165.472 115 161 115" stroke="#2E2E2D" stroke-width="3" stroke-linecap="round"/>
</g>
<defs>
<clipPath id="clip0_2001_54">
<rect width="363" height="262" fill="white"/>
</clipPath>
</defs>
</svg>
