<svg width="364" height="239" viewBox="0 0 364 239" fill="none" xmlns="http://www.w3.org/2000/svg">
<path d="M122.642 181.584C127.497 181.584 131.434 177.648 131.434 172.792C131.434 167.936 127.497 164 122.642 164C117.786 164 113.85 167.936 113.85 172.792C113.85 177.648 117.786 181.584 122.642 181.584Z" fill="#4EAD2B"/>
<path d="M125.663 167.936L120.349 173.356H122.803L119.058 178.47L125.504 172.363L122.912 172.349L125.663 167.936Z" fill="white"/>
<path fill-rule="evenodd" clip-rule="evenodd" d="M191.607 29.2436L245.787 2.89923L244.912 1.10059L190.092 27.7562L167.483 76.4923L125.85 134.177V173.262L151.902 180.414L167.535 192.139L184.93 232.892L186.769 232.107L169.164 190.861L152.798 178.586L127.85 171.737V134.823L169.216 77.5076L191.607 29.2436Z" fill="white"/>
<path d="M170.642 86.5839C175.497 86.5839 179.434 82.6476 179.434 77.7919C179.434 72.9362 175.497 68.9999 170.642 68.9999C165.786 68.9999 161.85 72.9362 161.85 77.7919C161.85 82.6476 165.786 86.5839 170.642 86.5839Z" fill="#4EAD2B"/>
<path d="M173.663 72.9356L168.349 78.3558H170.803L167.058 83.4699L173.504 77.3628L170.912 77.3487L173.663 72.9356Z" fill="white"/>
<path fill-rule="evenodd" clip-rule="evenodd" d="M245.758 1.58276L259.817 32.2105L266.825 78.2636L286.901 137.988L274.695 177.148L186.885 232.844L185.814 231.155L273.004 175.852L284.799 138.012L264.874 78.7362L257.882 32.7893L243.941 2.4171L245.758 1.58276Z" fill="#EBEBEB" fill-opacity="0.5"/>
<g filter="url(#filter0_d_2001_18)">
<path d="M44.8496 124C44.8496 122.895 45.745 122 46.8496 122H212.614C213.719 122 214.614 122.895 214.614 124V152.118C214.614 153.222 213.719 154.118 212.614 154.118H46.8496C45.745 154.118 44.8496 153.222 44.8496 152.118V124Z" fill="white"/>
</g>
<path d="M115.967 156.412C113.214 154.576 107.173 154.118 104.497 154.118H138.908C136.997 154.5 132.485 155.494 129.732 156.412C126.979 157.329 123.997 159.853 122.85 161L115.967 156.412Z" fill="white"/>
<path d="M74.2937 142.176H75.2137V134.946H73.3337V135.776H74.2937V142.176Z" fill="#534B4A"/>
<path d="M76.6669 142.096H81.4769V141.336H78.0369C79.3269 140.286 81.2669 138.756 81.2669 136.956C81.2669 135.616 80.3869 134.816 79.0269 134.816C77.7269 134.816 76.7569 135.616 76.6969 137.156H77.5769C77.6169 136.246 78.0969 135.596 79.0369 135.596C80.0169 135.596 80.3669 136.196 80.3669 136.996C80.3669 138.476 78.5669 139.916 76.6669 141.446V142.096Z" fill="#534B4A"/>
<path d="M85.5148 142.176H86.4248V137.446H87.5748V136.696H86.4248V136.306C86.4248 135.596 86.6948 135.296 87.5148 135.296V134.536C86.1148 134.536 85.5148 135.086 85.5148 136.306V136.696H84.8048V137.446H85.5148V142.176Z" fill="#534B4A"/>
<path d="M93.4958 136.696H92.5858V139.706C92.5858 140.886 91.9559 141.466 91.0159 141.466C90.0958 141.466 89.4859 140.896 89.4859 139.786V136.696H88.5858V139.906C88.5858 141.476 89.5758 142.256 90.8358 142.256C91.5658 142.256 92.2358 141.936 92.5858 141.366V142.176H93.4958V136.696Z" fill="#534B4A"/>
<path d="M99.0423 142.176H99.9423V138.946C99.9423 137.376 98.9723 136.596 97.7023 136.596C96.9623 136.596 96.3023 136.906 95.9423 137.476V136.696H95.0323V142.176H95.9423V139.146C95.9423 137.966 96.5823 137.386 97.5123 137.386C98.4323 137.386 99.0423 137.956 99.0423 139.076V142.176Z" fill="#534B4A"/>
<path d="M108.775 142.176H109.735L107.225 135.246H106.175L103.655 142.176H104.615L105.175 140.626H108.215L108.775 142.176ZM107.955 139.886H105.435L106.695 136.366L107.955 139.886Z" fill="#534B4A"/>
<path d="M118.743 142.176H119.643V138.946C119.643 137.376 118.673 136.596 117.423 136.596C116.583 136.596 115.803 137.026 115.483 137.816C115.123 136.996 114.373 136.596 113.473 136.596C112.753 136.596 112.103 136.906 111.743 137.486V136.696H110.833V142.176H111.743V139.156C111.743 137.976 112.373 137.386 113.293 137.386C114.193 137.386 114.793 137.956 114.793 139.076V142.176H115.693V139.156C115.693 137.976 116.323 137.386 117.243 137.386C118.143 137.386 118.743 137.956 118.743 139.076V142.176Z" fill="#534B4A"/>
<path d="M123.466 137.376C124.406 137.376 125.206 137.966 125.196 139.036H121.736C121.836 137.966 122.576 137.376 123.466 137.376ZM126.026 140.486H125.046C124.846 141.076 124.326 141.496 123.506 141.496C122.576 141.496 121.796 140.886 121.726 139.776H126.106C126.126 139.586 126.136 139.426 126.136 139.226C126.136 137.726 125.096 136.606 123.506 136.606C121.906 136.606 120.796 137.696 120.796 139.426C120.796 141.166 121.946 142.266 123.506 142.266C124.866 142.266 125.746 141.486 126.026 140.486Z" fill="#534B4A"/>
<path d="M131.347 142.176H132.247V138.946C132.247 137.376 131.277 136.596 130.007 136.596C129.267 136.596 128.607 136.906 128.247 137.476V136.696H127.337V142.176H128.247V139.146C128.247 137.966 128.887 137.386 129.817 137.386C130.737 137.386 131.347 137.956 131.347 139.076V142.176Z" fill="#534B4A"/>
<path d="M133.734 142.176H134.644V136.696H133.734V142.176ZM134.204 135.806C134.534 135.806 134.804 135.536 134.804 135.186C134.804 134.836 134.534 134.566 134.204 134.566C133.854 134.566 133.584 134.836 133.584 135.186C133.584 135.536 133.854 135.806 134.204 135.806Z" fill="#534B4A"/>
<path d="M136.394 140.676C136.394 141.776 136.944 142.176 137.914 142.176H138.734V141.406H138.064C137.504 141.406 137.304 141.216 137.304 140.676V137.446H138.734V136.696H137.304V135.316H136.394V136.696H135.684V137.446H136.394V140.676Z" fill="#534B4A"/>
<path d="M139.837 142.176H140.747V136.696H139.837V142.176ZM140.307 135.806C140.637 135.806 140.907 135.536 140.907 135.186C140.907 134.836 140.637 134.566 140.307 134.566C139.957 134.566 139.687 134.836 139.687 135.186C139.687 135.536 139.957 135.806 140.307 135.806Z" fill="#534B4A"/>
<path d="M144.628 137.376C145.568 137.376 146.368 137.966 146.358 139.036H142.898C142.998 137.966 143.738 137.376 144.628 137.376ZM147.188 140.486H146.208C146.008 141.076 145.488 141.496 144.668 141.496C143.738 141.496 142.958 140.886 142.888 139.776H147.268C147.288 139.586 147.298 139.426 147.298 139.226C147.298 137.726 146.258 136.606 144.668 136.606C143.068 136.606 141.958 137.696 141.958 139.426C141.958 141.166 143.108 142.266 144.668 142.266C146.028 142.266 146.908 141.486 147.188 140.486Z" fill="#534B4A"/>
<path d="M152.439 140.686C152.399 138.726 149.219 139.436 149.219 138.136C149.219 137.696 149.619 137.376 150.289 137.376C151.019 137.376 151.439 137.776 151.479 138.326H152.389C152.329 137.256 151.529 136.606 150.319 136.606C149.099 136.606 148.309 137.296 148.309 138.136C148.309 140.176 151.549 139.466 151.549 140.686C151.549 141.136 151.149 141.496 150.429 141.496C149.659 141.496 149.189 141.096 149.139 140.566H148.199C148.259 141.566 149.159 142.266 150.439 142.266C151.649 142.266 152.439 141.586 152.439 140.686Z" fill="#534B4A"/>
<path d="M160.4 142.176H161.3V138.946C161.3 137.376 160.33 136.596 159.06 136.596C158.32 136.596 157.66 136.906 157.3 137.476V136.696H156.39V142.176H157.3V139.146C157.3 137.966 157.94 137.386 158.87 137.386C159.79 137.386 160.4 137.956 160.4 139.076V142.176Z" fill="#534B4A"/>
<path d="M165.116 137.376C166.056 137.376 166.856 137.966 166.846 139.036H163.386C163.486 137.966 164.226 137.376 165.116 137.376ZM167.676 140.486H166.696C166.496 141.076 165.976 141.496 165.156 141.496C164.226 141.496 163.446 140.886 163.376 139.776H167.756C167.776 139.586 167.786 139.426 167.786 139.226C167.786 137.726 166.746 136.606 165.156 136.606C163.556 136.606 162.446 137.696 162.446 139.426C162.446 141.166 163.596 142.266 165.156 142.266C166.516 142.266 167.396 141.486 167.676 140.486Z" fill="#534B4A"/>
<path d="M168.647 139.416C168.647 141.116 169.777 142.266 171.237 142.266C172.247 142.266 172.957 141.746 173.287 141.156V142.176H174.207V136.696H173.287V137.696C172.967 137.126 172.267 136.606 171.247 136.606C169.777 136.606 168.647 137.706 168.647 139.416ZM173.287 139.426C173.287 140.716 172.427 141.466 171.427 141.466C170.427 141.466 169.577 140.706 169.577 139.416C169.577 138.126 170.427 137.396 171.427 137.396C172.427 137.396 173.287 138.156 173.287 139.426Z" fill="#534B4A"/>
<path d="M176.655 139.196C176.655 137.926 177.315 137.536 178.185 137.536H178.425V136.596C177.555 136.596 176.965 136.976 176.655 137.586V136.696H175.745V142.176H176.655V139.196Z" fill="#534B4A"/>
<path d="M180.386 137.716V134.776H179.476V142.176H180.386V141.166C180.726 141.766 181.436 142.266 182.436 142.266C183.906 142.266 185.036 141.116 185.036 139.416C185.036 137.706 183.916 136.606 182.436 136.606C181.466 136.606 180.736 137.106 180.386 137.716ZM184.106 139.416C184.106 140.706 183.256 141.466 182.246 141.466C181.256 141.466 180.386 140.716 180.386 139.426C180.386 138.156 181.256 137.396 182.246 137.396C183.256 137.396 184.106 138.126 184.106 139.416Z" fill="#534B4A"/>
<path d="M188.314 141.136L186.594 136.696H185.584L187.794 142.116L186.714 144.756H187.654L190.954 136.696H190.014L188.314 141.136Z" fill="#534B4A"/>
<path d="M193.85 232C193.85 235.866 190.716 239 186.85 239C182.984 239 179.85 235.866 179.85 232C179.85 228.134 182.984 225 186.85 225C190.716 225 193.85 228.134 193.85 232Z" fill="#6A8AFE"/>
<defs>
<filter id="filter0_d_2001_18" x="40.8496" y="122" width="177.765" height="40.1177" filterUnits="userSpaceOnUse" color-interpolation-filters="sRGB">
<feFlood flood-opacity="0" result="BackgroundImageFix"/>
<feColorMatrix in="SourceAlpha" type="matrix" values="0 0 0 0 0 0 0 0 0 0 0 0 0 0 0 0 0 0 127 0" result="hardAlpha"/>
<feOffset dy="4"/>
<feGaussianBlur stdDeviation="2"/>
<feComposite in2="hardAlpha" operator="out"/>
<feColorMatrix type="matrix" values="0 0 0 0 0 0 0 0 0 0 0 0 0 0 0 0 0 0 0.1 0"/>
<feBlend mode="normal" in2="BackgroundImageFix" result="effect1_dropShadow_2001_18"/>
<feBlend mode="normal" in="SourceGraphic" in2="effect1_dropShadow_2001_18" result="shape"/>
</filter>
</defs>
</svg>
