<svg width="364" height="239" viewBox="0 0 364 239" fill="none" xmlns="http://www.w3.org/2000/svg">
<path fill-rule="evenodd" clip-rule="evenodd" d="M193.177 28.2437L247.357 1.89929L246.482 0.100647L191.662 26.7563L169.053 75.4923L127.419 133.177V172.262L153.471 179.414L169.105 191.139L186.5 231.893L188.339 231.107L170.734 189.861L154.367 177.586L129.419 170.737V133.823L170.786 76.5076L193.177 28.2437Z" fill="#2E2E2D"/>
<path d="M124.211 180.584C129.067 180.584 133.003 176.648 133.003 171.792C133.003 166.936 129.067 163 124.211 163C119.356 163 115.419 166.936 115.419 171.792C115.419 176.648 119.356 180.584 124.211 180.584Z" fill="#4EAD2B"/>
<path d="M127.233 166.936L121.919 172.356H124.373L120.628 177.47L127.074 171.363L124.481 171.349L127.233 166.936Z" fill="white"/>
<path d="M172.211 85.584C177.067 85.584 181.003 81.6477 181.003 76.792C181.003 71.9363 177.067 68 172.211 68C167.356 68 163.419 71.9363 163.419 76.792C163.419 81.6477 167.356 85.584 172.211 85.584Z" fill="#4EAD2B"/>
<path d="M175.233 71.9357L169.919 77.3559H172.373L168.628 82.47L175.074 76.3629L172.481 76.3488L175.233 71.9357Z" fill="white"/>
<path fill-rule="evenodd" clip-rule="evenodd" d="M247.328 0.582825L261.387 31.2106L268.395 77.2637L288.47 136.988L276.265 176.148L188.455 231.844L187.384 230.156L274.574 174.852L286.368 137.012L266.444 77.7363L259.452 31.7894L245.511 1.41716L247.328 0.582825Z" fill="#666766" fill-opacity="0.5"/>
<g filter="url(#filter0_d_2001_2)">
<path d="M46.4194 123C46.4194 121.895 47.3149 121 48.4194 121H214.184C215.289 121 216.184 121.895 216.184 123V151.118C216.184 152.222 215.289 153.118 214.184 153.118H48.4194C47.3149 153.118 46.4194 152.222 46.4194 151.118V123Z" fill="white"/>
</g>
<path d="M117.537 155.412C114.784 153.576 108.743 153.118 106.066 153.118H140.478C138.566 153.5 134.055 154.494 131.302 155.412C128.549 156.329 125.566 158.853 124.419 160L117.537 155.412Z" fill="white"/>
<path d="M75.8636 141.176H76.7836V133.946H74.9036V134.776H75.8636V141.176Z" fill="#534B4A"/>
<path d="M78.2367 141.096H83.0467V140.336H79.6067C80.8967 139.286 82.8367 137.756 82.8367 135.956C82.8367 134.616 81.9567 133.816 80.5967 133.816C79.2967 133.816 78.3267 134.616 78.2667 136.156H79.1467C79.1867 135.246 79.6667 134.596 80.6067 134.596C81.5867 134.596 81.9367 135.196 81.9367 135.996C81.9367 137.476 80.1367 138.916 78.2367 140.446V141.096Z" fill="#534B4A"/>
<path d="M87.0847 141.176H87.9947V136.446H89.1447V135.696H87.9947V135.306C87.9947 134.596 88.2647 134.296 89.0847 134.296V133.536C87.6847 133.536 87.0847 134.086 87.0847 135.306V135.696H86.3747V136.446H87.0847V141.176Z" fill="#534B4A"/>
<path d="M95.0657 135.696H94.1557V138.706C94.1557 139.886 93.5257 140.466 92.5857 140.466C91.6657 140.466 91.0557 139.896 91.0557 138.786V135.696H90.1557V138.906C90.1557 140.476 91.1457 141.256 92.4057 141.256C93.1357 141.256 93.8057 140.936 94.1557 140.366V141.176H95.0657V135.696Z" fill="#534B4A"/>
<path d="M100.612 141.176H101.512V137.946C101.512 136.376 100.542 135.596 99.2722 135.596C98.5322 135.596 97.8722 135.906 97.5122 136.476V135.696H96.6022V141.176H97.5122V138.146C97.5122 136.966 98.1522 136.386 99.0822 136.386C100.002 136.386 100.612 136.956 100.612 138.076V141.176Z" fill="#534B4A"/>
<path d="M110.345 141.176H111.305L108.795 134.246H107.745L105.225 141.176H106.185L106.745 139.626H109.785L110.345 141.176ZM109.525 138.886H107.005L108.265 135.366L109.525 138.886Z" fill="#534B4A"/>
<path d="M120.313 141.176H121.213V137.946C121.213 136.376 120.243 135.596 118.993 135.596C118.153 135.596 117.373 136.026 117.053 136.816C116.693 135.996 115.943 135.596 115.043 135.596C114.323 135.596 113.673 135.906 113.313 136.486V135.696H112.403V141.176H113.313V138.156C113.313 136.976 113.943 136.386 114.863 136.386C115.763 136.386 116.363 136.956 116.363 138.076V141.176H117.263V138.156C117.263 136.976 117.893 136.386 118.813 136.386C119.713 136.386 120.313 136.956 120.313 138.076V141.176Z" fill="#534B4A"/>
<path d="M125.036 136.376C125.976 136.376 126.776 136.966 126.766 138.036H123.306C123.406 136.966 124.146 136.376 125.036 136.376ZM127.596 139.486H126.616C126.416 140.076 125.896 140.496 125.076 140.496C124.146 140.496 123.366 139.886 123.296 138.776H127.676C127.696 138.586 127.706 138.426 127.706 138.226C127.706 136.726 126.666 135.606 125.076 135.606C123.476 135.606 122.366 136.696 122.366 138.426C122.366 140.166 123.516 141.266 125.076 141.266C126.436 141.266 127.316 140.486 127.596 139.486Z" fill="#534B4A"/>
<path d="M132.917 141.176H133.817V137.946C133.817 136.376 132.847 135.596 131.577 135.596C130.837 135.596 130.177 135.906 129.817 136.476V135.696H128.907V141.176H129.817V138.146C129.817 136.966 130.457 136.386 131.387 136.386C132.307 136.386 132.917 136.956 132.917 138.076V141.176Z" fill="#534B4A"/>
<path d="M135.303 141.176H136.213V135.696H135.303V141.176ZM135.773 134.806C136.103 134.806 136.373 134.536 136.373 134.186C136.373 133.836 136.103 133.566 135.773 133.566C135.423 133.566 135.153 133.836 135.153 134.186C135.153 134.536 135.423 134.806 135.773 134.806Z" fill="#534B4A"/>
<path d="M137.964 139.676C137.964 140.776 138.514 141.176 139.484 141.176H140.304V140.406H139.634C139.074 140.406 138.874 140.216 138.874 139.676V136.446H140.304V135.696H138.874V134.316H137.964V135.696H137.254V136.446H137.964V139.676Z" fill="#534B4A"/>
<path d="M141.407 141.176H142.317V135.696H141.407V141.176ZM141.877 134.806C142.207 134.806 142.477 134.536 142.477 134.186C142.477 133.836 142.207 133.566 141.877 133.566C141.527 133.566 141.257 133.836 141.257 134.186C141.257 134.536 141.527 134.806 141.877 134.806Z" fill="#534B4A"/>
<path d="M146.198 136.376C147.138 136.376 147.938 136.966 147.928 138.036H144.468C144.568 136.966 145.308 136.376 146.198 136.376ZM148.758 139.486H147.778C147.578 140.076 147.058 140.496 146.238 140.496C145.308 140.496 144.528 139.886 144.458 138.776H148.838C148.858 138.586 148.868 138.426 148.868 138.226C148.868 136.726 147.828 135.606 146.238 135.606C144.638 135.606 143.528 136.696 143.528 138.426C143.528 140.166 144.678 141.266 146.238 141.266C147.598 141.266 148.478 140.486 148.758 139.486Z" fill="#534B4A"/>
<path d="M154.009 139.686C153.969 137.726 150.789 138.436 150.789 137.136C150.789 136.696 151.189 136.376 151.859 136.376C152.589 136.376 153.009 136.776 153.049 137.326H153.959C153.899 136.256 153.099 135.606 151.889 135.606C150.669 135.606 149.879 136.296 149.879 137.136C149.879 139.176 153.119 138.466 153.119 139.686C153.119 140.136 152.719 140.496 151.999 140.496C151.229 140.496 150.759 140.096 150.709 139.566H149.769C149.829 140.566 150.729 141.266 152.009 141.266C153.219 141.266 154.009 140.586 154.009 139.686Z" fill="#534B4A"/>
<path d="M161.97 141.176H162.87V137.946C162.87 136.376 161.9 135.596 160.63 135.596C159.89 135.596 159.23 135.906 158.87 136.476V135.696H157.96V141.176H158.87V138.146C158.87 136.966 159.51 136.386 160.44 136.386C161.36 136.386 161.97 136.956 161.97 138.076V141.176Z" fill="#534B4A"/>
<path d="M166.686 136.376C167.626 136.376 168.426 136.966 168.416 138.036H164.956C165.056 136.966 165.796 136.376 166.686 136.376ZM169.246 139.486H168.266C168.066 140.076 167.546 140.496 166.726 140.496C165.796 140.496 165.016 139.886 164.946 138.776H169.326C169.346 138.586 169.356 138.426 169.356 138.226C169.356 136.726 168.316 135.606 166.726 135.606C165.126 135.606 164.016 136.696 164.016 138.426C164.016 140.166 165.166 141.266 166.726 141.266C168.086 141.266 168.966 140.486 169.246 139.486Z" fill="#534B4A"/>
<path d="M170.217 138.416C170.217 140.116 171.347 141.266 172.807 141.266C173.817 141.266 174.527 140.746 174.857 140.156V141.176H175.777V135.696H174.857V136.696C174.537 136.126 173.837 135.606 172.817 135.606C171.347 135.606 170.217 136.706 170.217 138.416ZM174.857 138.426C174.857 139.716 173.997 140.466 172.997 140.466C171.997 140.466 171.147 139.706 171.147 138.416C171.147 137.126 171.997 136.396 172.997 136.396C173.997 136.396 174.857 137.156 174.857 138.426Z" fill="#534B4A"/>
<path d="M178.225 138.196C178.225 136.926 178.885 136.536 179.755 136.536H179.995V135.596C179.125 135.596 178.535 135.976 178.225 136.586V135.696H177.315V141.176H178.225V138.196Z" fill="#534B4A"/>
<path d="M181.956 136.716V133.776H181.046V141.176H181.956V140.166C182.296 140.766 183.006 141.266 184.006 141.266C185.476 141.266 186.606 140.116 186.606 138.416C186.606 136.706 185.486 135.606 184.006 135.606C183.036 135.606 182.306 136.106 181.956 136.716ZM185.676 138.416C185.676 139.706 184.826 140.466 183.816 140.466C182.826 140.466 181.956 139.716 181.956 138.426C181.956 137.156 182.826 136.396 183.816 136.396C184.826 136.396 185.676 137.126 185.676 138.416Z" fill="#534B4A"/>
<path d="M189.883 140.136L188.163 135.696H187.153L189.363 141.116L188.283 143.756H189.223L192.523 135.696H191.583L189.883 140.136Z" fill="#534B4A"/>
<path d="M195.419 231C195.419 234.866 192.285 238 188.419 238C184.553 238 181.419 234.866 181.419 231C181.419 227.134 184.553 224 188.419 224C192.285 224 195.419 227.134 195.419 231Z" fill="#6A8AFE"/>
<defs>
<filter id="filter0_d_2001_2" x="42.4194" y="121" width="177.765" height="40.1177" filterUnits="userSpaceOnUse" color-interpolation-filters="sRGB">
<feFlood flood-opacity="0" result="BackgroundImageFix"/>
<feColorMatrix in="SourceAlpha" type="matrix" values="0 0 0 0 0 0 0 0 0 0 0 0 0 0 0 0 0 0 127 0" result="hardAlpha"/>
<feOffset dy="4"/>
<feGaussianBlur stdDeviation="2"/>
<feComposite in2="hardAlpha" operator="out"/>
<feColorMatrix type="matrix" values="0 0 0 0 0 0 0 0 0 0 0 0 0 0 0 0 0 0 0.1 0"/>
<feBlend mode="normal" in2="BackgroundImageFix" result="effect1_dropShadow_2001_2"/>
<feBlend mode="normal" in="SourceGraphic" in2="effect1_dropShadow_2001_2" result="shape"/>
</filter>
</defs>
</svg>
