<svg width="39" height="39" viewBox="0 0 39 39" fill="none" xmlns="http://www.w3.org/2000/svg">
<circle cx="19.4476" cy="19.4476" r="19.4476" fill="#EBEBEB"/>
<path fill-rule="evenodd" clip-rule="evenodd" d="M26.5141 11.9714H18.7426V22.6571H26.5141V11.9714ZM17.7712 11V23.6286H27.4855V11H17.7712Z" fill="black"/>
<path fill-rule="evenodd" clip-rule="evenodd" d="M10.9714 16.8286V17.646H12.6327V16.8286H13.6041V18.6175H12.1681V24.9081C12.1681 25.0424 12.1929 25.678 12.5899 26.2735C12.7704 26.5442 13.0356 26.7363 13.304 26.8619C13.5809 26.9914 13.8139 27.0286 13.8857 27.0286H22.1551C22.837 26.8632 23.5406 26.6764 24.1744 25.7773C24.3969 25.4617 24.4866 25.2317 24.531 24.8932C24.5736 24.5676 24.5729 24.1599 24.5718 23.5035C24.5716 23.3909 24.5714 23.271 24.5714 23.1429H25.5429C25.5429 23.2647 25.5431 23.3813 25.5434 23.4931C25.5448 24.139 25.5459 24.6245 25.4942 25.0194C25.4279 25.5255 25.2747 25.9026 24.9684 26.337C24.1095 27.5555 23.0871 27.8027 22.3522 27.9804L22.271 28H13.8857C13.6385 28 13.2643 27.9158 12.8923 27.7418C12.5119 27.5638 12.0868 27.2701 11.7816 26.8123C11.2292 25.9838 11.1967 25.1212 11.1967 24.9081V18.6175H10V16.8286H10.9714Z" fill="black"/>
</svg>
