<svg width="39" height="39" viewBox="0 0 39 39" fill="none" xmlns="http://www.w3.org/2000/svg">
<circle cx="19.4476" cy="19.4476" r="19.4476" fill="#EBEBEB"/>
<path fill-rule="evenodd" clip-rule="evenodd" d="M11 13H27V24.7132L19.2221 29.0596L11 24.7202V13ZM11.8649 13.8649V24.1987L19.2103 28.0755L26.1351 24.2057V13.8649H11.8649Z" fill="black"/>
<path d="M18.7011 21.5144L18.4238 15.8108H19.9185L19.6353 21.5144H18.7011ZM19.2194 24.027C18.9823 24.027 18.7774 23.9534 18.6046 23.8061C18.4359 23.6622 18.3515 23.4892 18.3515 23.2871C18.3515 23.085 18.4359 22.912 18.6046 22.7681C18.7774 22.6242 18.9823 22.5523 19.2194 22.5523C19.4524 22.5523 19.6533 22.6242 19.8221 22.7681C19.9949 22.9086 20.0812 23.0816 20.0812 23.2871C20.0812 23.4926 19.9949 23.6673 19.8221 23.8112C19.6493 23.9551 19.4484 24.027 19.2194 24.027Z" fill="black"/>
</svg>
